PathFileType	4	(X/Y/Z)	Walk2.trc
DataRate	CameraRate	NumFrames	NumMarkers	Units	OrigDataRate	OrigDataStartFrame	OrigNumFrames
200.000000	200.000000	6	56	mm	200.000000	494	568
Frame#	Times		RASI		RACR1		RUA1		RFA1		RTH2		C7		LFA1		RTH3		RElbow		LElbowM		RCAR		RTH4		RLFC		RTB3		RMT1		RTB1		RWRU		RMT5		LACR1		RTH1		RTB4		RTB2		LTH3		LElbow		RMMAL		LWRU		RWRR		LPSI		CLAV		LTB1		T10		LBHD		RPSI		LTB4		LTB3		LLFC		LTH2		LTH4		LTB2		RBHD		LWRR		LTH1		LFHD		LMT1		RBack		LMMAL		LCAL		LLMAL		RLMAL		RToe		LMT5		RElbowM		LToe		LUA1		LCAR		RCAL
			X1	Y1	Z1	X2	Y2	Z2	X3	Y3	Z3	X4	Y4	Z4	X5	Y5	Z5	X6	Y6	Z6	X7	Y7	Z7	X8	Y8	Z8	X9	Y9	Z9	X10	Y10	Z10	X11	Y11	Z11	X12	Y12	Z12	X13	Y13	Z13	X14	Y14	Z14	X15	Y15	Z15	X16	Y16	Z16	X17	Y17	Z17	X18	Y18	Z18	X19	Y19	Z19	X20	Y20	Z20	X21	Y21	Z21	X22	Y22	Z22	X23	Y23	Z23	X24	Y24	Z24	X25	Y25	Z25	X26	Y26	Z26	X27	Y27	Z27	X28	Y28	Z28	X29	Y29	Z29	X30	Y30	Z30	X31	Y31	Z31	X32	Y32	Z32	X33	Y33	Z33	X34	Y34	Z34	X35	Y35	Z35	X36	Y36	Z36	X37	Y37	Z37	X38	Y38	Z38	X39	Y39	Z39	X40	Y40	Z40	X41	Y41	Z41	X42	Y42	Z42	X43	Y43	Z43	X44	Y44	Z44	X45	Y45	Z45	X46	Y46	Z46	X47	Y47	Z47	X48	Y48	Z48	X49	Y49	Z49	X50	Y50	Z50	X51	Y51	Z51	X52	Y52	Z52	X53	Y53	Z53	X54	Y54	Z54	X55	Y55	Z55	X56	Y56	Z56

494	2.47	997.32	924.69	426.94	950.68	1363.7	461.46	874.65	1177.9	529.94	813.04	915.75	571.35	1089.3	672.62	440.04	891.97	1418.6	313.27	992.52	982.52	-14.428	1067	556.04	448.57	805.49	1061.9	544.76	848.73	1087.5	85.381	805.3	727.26	572.83	1029.9	639.88	469.94	1104.6	461.43	432.15	1134.2	183.39	345.54	1228.4	37.467	305.01	1143	373.72	346.39	774.51	788.62	561.57	1202.2	30.772	393.46	935.8	1414.6	137.26	989.76	725.69	480.85	1141.7	280.92	347.52	1134.4	277.61	419.41	897.81	533.95	114.88	874.86	1096.1	8.1335	1099.4	94.311	303	1005.6	863.86	-8.0961	846.41	772.89	532.91	810.52	936.26	228.61	1028.8	1340	298.7	830.67	320.88	183.72	799.8	1109	283.06	908.75	1555.8	255.09	810.96	939.12	334.53	753.8	268.6	190.5	679.49	214.16	195.85	858.47	425.53	127.69	978.24	615.65	136.81	908.67	622.79	104.25	730.63	294.16	127.66	920.63	1551	394.1	1068.7	899.07	30.586	921.95	719.46	99.016	1091.2	1589	265.71	598.14	41.833	253.26	816.83	1323.6	395.8	578.19	171.92	257.53	483.13	197.46	224.62	540.49	186.83	174.64	1078.8	78.786	390.81	1280.3	34.205	324	580.3	49.492	170.91	790.41	1043.2	450.78	633.12	24.051	235.46	904.29	1224.4	32.566	1087.7	850.43	-17.711	1027.7	31.181	352.03
495	2.475	1004	925.89	427.59	958.12	1364.4	461.7	883.37	1178.3	530.46	823.36	915.93	572.25	1095.1	672.06	440.4	898.65	1419.3	314.16	998.02	982.94	-13.511	1071.5	555.23	447.63	814.39	1061.9	545.6	855.7	1089.1	87.328	817.08	727.55	573.79	1034.9	639.86	470.13	1108.4	461.1	432.03	1135.3	182.84	344.97	1228.6	37.196	303.97	1145.8	373.04	345.9	785.73	788.4	562.5	1202.3	31.009	393.21	942.45	1415.9	138.07	995.69	726.06	481.35	1143.8	280.28	346.89	1136.7	277.06	418.87	909.73	532.96	115.48	880.94	1097.2	8.483	1099.4	94.038	302.65	1009.7	864.4	-8.1779	857.62	773.68	533.97	817.1	936.72	229.11	1035.3	1340.8	299.09	843.86	319.35	183.31	806.16	1109.9	283.78	915.46	1556.8	255.88	817.54	939.84	335.15	765.44	268.76	190.3	689.65	215.92	195.45	872.02	424.32	128.07	988.95	616.03	136.97	919.09	622	104.91	742.82	295.51	127.55	927.34	1551.2	395.08	1073.4	898.43	31.262	930.49	718.86	99.929	1097.9	1589.8	266.98	604.12	45.279	252.59	823.78	1324.3	397	587.37	176.43	257.43	492.9	204.22	223.6	550.24	192.12	174.25	1079.2	78.71	390.41	1280.4	31.277	321.68	587.44	53.889	170.83	799.35	1043	451.75	638.15	23.754	233.56	910.81	1225.7	33.545	1091.9	849.88	-17.184	1027.7	31.269	351.91
496	2.48	1010.6	927.25	428.07	965.61	1365	461.99	892.1	1178.6	531.1	833.64	916.06	573.1	1100.5	671.6	440.75	905.43	1420.3	314.97	1003.5	983.39	-12.492	1075.9	554.76	446.73	823.65	1061.6	546.38	862.57	1091	89.057	829.09	727.58	574.83	1040	640.03	470.14	1112.2	460.76	431.75	1136.5	182.34	344.31	1228.7	36.761	303.34	1148.5	372.18	344.98	797.08	788.41	563.66	1202.4	31.185	392.96	949.07	1417.2	138.79	1001.9	726.56	481.77	1145.5	279.69	346.4	1138.7	276.52	418.4	921.73	532.05	115.99	886.99	1098.8	9.762	1099.6	93.755	302.21	1014	864.9	-7.318	868.91	774.26	535.04	823.19	937.21	229.77	1042	1341.7	299.17	857.02	318.03	183.48	812.64	1110.8	284.44	922.11	1557.8	256.69	824.09	940.61	335.52	777.42	269.16	190.39	700.11	218.14	195.37	885.45	423	128.71	999.45	616.36	137.04	929.25	621.31	105.53	755.24	296.59	127.62	933.73	1551.5	395.92	1078.5	898.19	31.931	938.8	718.27	101.26	1104.6	1590.6	268.16	611.8	49.06	251.54	831.12	1325.2	398.1	596.18	181.47	257.97	502.89	210.88	222.14	560.46	197.63	173.91	1079.6	78.728	389.97	1280.8	30.52	320.55	595.49	58.881	170.54	808.33	1043.4	452.55	644.07	25.496	230.84	917.43	1227	34.257	1096.3	849.35	-16.62	1027.6	31.415	351.72
497	2.485	1017	928.49	428.71	972.96	1365.8	462.32	900.91	1179	531.69	844.08	916.14	574.21	1106	671.32	440.68	912.02	1421.1	315.72	1008.7	983.88	-11.623	1080.1	554.69	445.96	832.74	1061.6	547.26	869.22	1092.7	90.823	840.82	727.66	575.84	1045	640.55	470.09	1115.8	460.5	431.48	1137.4	181.87	343.81	1228.7	36.478	303.1	1151.1	371.87	344.36	808.42	788.15	564.82	1202.5	31.219	392.8	955.38	1418.4	139.58	1008	727.28	482.11	1147.4	279.09	345.77	1140.9	275.89	417.93	933.6	531.32	116.54	893.13	1100.3	11.065	1100	93.48	301.78	1018.3	865.18	-6.1359	880.35	774.86	536.99	829.34	937.82	230.47	1048.4	1342.3	299.34	869.84	317.38	184.19	819.05	1111.7	285.2	928.88	1558.8	257.55	830.37	941.48	336.34	789.52	270.1	191.03	710.79	220.75	196	898.89	421.87	129.36	1009.9	616.92	137.17	939.36	620.94	106.26	767.83	297.53	128.04	940.12	1551.8	396.7	1083.1	897.92	32.614	947.12	717.74	102.43	1111.4	1591.7	269.31	621.12	53.265	250.13	837.99	1325.9	399.2	605.81	187.16	258.46	513.63	217.34	221.06	571.27	202.88	173.64	1079.9	78.728	389.6	1281.5	31.057	320.88	604.36	64.313	169.97	817.18	1043.4	453.13	652.64	29.421	229.03	923.99	1228.2	35.161	1100.3	848.87	-16.111	1027.6	31.575	351.53
498	2.49	1023.7	929.85	429.12	980.41	1366.5	462.44	909.49	1179.4	532.28	854.76	916.34	575.17	1111.2	671.17	440.42	918.59	1422.2	316.38	1014	984.43	-10.904	1084	554.73	445.42	841.81	1061.9	548.32	875.67	1094.7	92.498	852.85	727.91	576.86	1050.2	641.04	470.02	1119.3	460.29	431.26	1138.4	181.4	343.52	1228.9	36.416	303.09	1153.2	371.41	344.24	820.01	788.07	565.85	1202.6	31.216	392.67	961.79	1419.8	140.3	1014.2	728.08	482.39	1149	278.61	345.52	1142.9	275.36	417.56	945.31	530.81	117.15	899.07	1101.5	11.977	1100.3	93.223	301.43	1022.7	865.31	-5.0777	892.46	775.19	538.69	835.63	938.63	231.04	1054.9	1343.1	299.26	882.87	317.49	185.41	825.22	1112.8	285.81	935.68	1559.6	258.59	836.23	942.64	336.79	801.55	271.62	192.01	722.12	223.72	196.93	912.35	421	130.01	1020.2	617.61	137.32	949.37	620.69	106.89	781.04	298.08	128.34	946.8	1552.4	397.28	1087.7	897.68	33.191	955.21	717.33	103.49	1118.2	1592.6	270.43	631.32	57.454	248.98	845.04	1326.7	400.4	616.22	192.03	258.58	524.9	223.15	220.55	582.5	207.96	173.3	1080	78.643	389.48	1282.1	32.014	322.14	614.14	69.41	169.13	826.01	1043.6	453.78	663.01	33.405	228.31	930.59	1229.5	35.845	1104	848.46	-15.415	1027.6	31.678	351.43
499	2.495	1030.2	931.17	429.38	987.85	1367.2	462.6	918.03	1179.8	532.87	865.26	916.48	576.06	1116.4	671.23	440.22	925.01	1423.1	317.01	1019.2	985	-10.129	1088.1	554.91	445.25	851.16	1062.2	549.21	882.15	1096.5	93.874	865.33	728.34	577.89	1055.4	641.37	470	1122.5	460.14	431.03	1139.3	180.93	343.39	1229	36.501	303.14	1155	370.67	344.25	831.72	788.09	566.91	1202.6	31.235	392.54	967.98	1421.1	140.77	1020.1	728.92	482.49	1150.6	278.03	345.35	1144.7	274.85	417.4	956.74	530.49	117.82	905.07	1102.9	13.441	1100.7	93.046	301.14	1026.5	865.9	-5.2188	904.22	775.43	539.32	841.83	939.42	231.72	1061.4	1343.8	299.19	895.58	318.25	186.97	831.45	1113.8	286.52	942.48	1560.7	259.44	842.42	943.83	337.24	813.54	273.37	193.45	733.71	226.72	197.97	925.85	420.55	130.48	1030.5	618.74	137.54	959.22	620.27	107.58	794.34	298.87	128.8	953.53	1553	398.09	1092	897.48	33.84	963.41	717.35	104.34	1124.9	1593.5	271.49	641.6	61.209	248.24	851.93	1327.5	401.52	627.51	196.05	258.51	536.53	229.18	220.17	594.21	212.75	173.26	1080	79.229	390.54	1282.1	31.359	323.25	624.37	74.011	168.3	834.9	1043.7	454.86	673.48	37.239	228.15	937.01	1230.7	36.499	1107.9	847.86	-14.828	1027.6	31.757	351.38
